<?xml version="1.0" standalone="no"?><!DOCTYPE svg PUBLIC "-//W3C//DTD SVG 1.1//EN" "http://www.w3.org/Graphics/SVG/1.1/DTD/svg11.dtd"><svg class="icon" width="200px" height="200.00px" viewBox="0 0 1024 1024" version="1.1" xmlns="http://www.w3.org/2000/svg"><path d="M511.974273 512.025215m-486.3741 0a486.374101 486.374101 0 1 0 972.748201 0 486.374101 486.374101 0 1 0-972.748201 0Z" fill="#FFFFFF" /><path d="M149.958351 874.041137A511.972737 511.972737 0 1 1 511.974273 1023.997952a508.644915 508.644915 0 0 1-362.015922-149.956815zM51.19881 512.025215a460.775464 460.775464 0 1 0 460.775463-460.775464 461.313035 461.313035 0 0 0-460.775463 460.775464z m550.370693 281.585005v-140.792503h-179.190459v140.792503h-51.197273v-140.792503h-140.792503v-51.197273h140.792503v-179.190458h-140.792503v-51.197274h140.792503V230.440209h51.197273v140.792503h179.190459V230.440209h51.197273v140.792503h140.792503v51.197274h-140.792503v179.190458h140.792503v51.197273h-140.792503v140.792503z m-179.190459-191.989776h179.190459v-179.190458h-179.190459z" fill="#00CCFF" /></svg>