<?xml version="1.0" standalone="no"?><!DOCTYPE svg PUBLIC "-//W3C//DTD SVG 1.1//EN" "http://www.w3.org/Graphics/SVG/1.1/DTD/svg11.dtd"><svg class="icon" width="200px" height="200.00px" viewBox="0 0 1024 1024" version="1.1" xmlns="http://www.w3.org/2000/svg"><path d="M511.974273 512.025215m-486.3741 0a486.374101 486.374101 0 1 0 972.748201 0 486.374101 486.374101 0 1 0-972.748201 0Z" fill="#FFFFFF" /><path d="M149.958351 874.041137A511.972737 511.972737 0 1 1 511.974273 1023.997952a508.644915 508.644915 0 0 1-362.015922-149.956815zM51.19881 512.025215a460.775464 460.775464 0 1 0 460.775463-460.775464 461.313035 461.313035 0 0 0-460.775463 460.775464z m204.789095 0a255.986369 255.986369 0 1 1 255.986368 255.986368 255.986369 255.986369 0 0 1-255.986368-255.986368z" fill="#FF0000" /></svg>