<?xml version="1.0" standalone="no"?><!DOCTYPE svg PUBLIC "-//W3C//DTD SVG 1.1//EN" "http://www.w3.org/Graphics/SVG/1.1/DTD/svg11.dtd"><svg class="icon" width="200px" height="200.00px" viewBox="0 0 1024 1024" version="1.1" xmlns="http://www.w3.org/2000/svg"><path d="M511.974273 512.025215m-486.3741 0a486.374101 486.374101 0 1 0 972.748201 0 486.374101 486.374101 0 1 0-972.748201 0Z" fill="#FFA600" /><path d="M149.958351 874.041137A511.972737 511.972737 0 1 1 511.974273 1023.997952a508.644915 508.644915 0 0 1-362.015922-149.956815zM511.974273 955.726388a442.856418 442.856418 0 0 0 336.596477-154.897352l-277.412428-277.412428h-108.9222l-282.455359 282.429761A442.856418 442.856418 0 0 0 511.974273 955.726388z m-373.740098-204.789095l227.495086-227.469488h-297.27697a440.885323 440.885323 0 0 0 69.781884 227.41829z m751.217598-5.785292a440.962119 440.962119 0 0 0 66.146877-221.709794h-287.88227z m62.665463-289.981359a443.75237 443.75237 0 0 0-880.157932 0z"  /></svg>